<svg xmlns="http://www.w3.org/2000/svg" width="30" height="30" viewBox="0 0 30 30">
  <g id="avax" transform="translate(-0.5 -1)">
    <rect id="Rectangle_1101" data-name="Rectangle 1101" width="18.535" height="16.858" transform="translate(6.222 6.133)" fill="#fff"/>
    <path id="Path_590" data-name="Path 590" d="M30.5,16a15,15,0,1,1-15-15,15,15,0,0,1,15,15ZM11.249,21.969H8.338a2.337,2.337,0,0,1-1.1-.118.74.74,0,0,1-.335-.579c-.011-.217.14-.483.442-1.013L14.535,7.59c.306-.538.461-.807.656-.906a.742.742,0,0,1,.671,0c.2.1.35.368.656.906L18,10.169l.008.013a4.838,4.838,0,0,1,.571,1.177,2.188,2.188,0,0,1,0,1.024A4.857,4.857,0,0,1,18,13.574l-3.776,6.674-.01.017a4.788,4.788,0,0,1-.735,1.1,2.2,2.2,0,0,1-.9.52,5.267,5.267,0,0,1-1.33.084Zm7.351,0h4.171a2.32,2.32,0,0,0,1.109-.121.737.737,0,0,0,.335-.582c.011-.21-.137-.465-.427-.965l-.03-.052L21.67,16.674l-.024-.04c-.294-.5-.442-.747-.632-.844a.734.734,0,0,0-.667,0c-.192.1-.346.361-.652.888l-2.082,3.574-.007.012c-.3.526-.457.789-.446,1a.746.746,0,0,0,.335.582,2.357,2.357,0,0,0,1.105.123Z" fill="#e84142" fill-rule="evenodd"/>
  </g>
</svg>
