<svg width="188" height="220" xmlns="http://www.w3.org/2000/svg">

 <g>
  <title>Layer 1</title>
  <g stroke="null">
   <desc stroke="null">Created with Sketch.</desc>
   <g stroke="null">
    <path stroke="null" fill="#F3BA2F" d="m224.20002,28.09998l36.6,0c9.3,0 16.1,2.5 20.5,6.8c4.3,3.7 6.2,8.7 6.2,13.6l0,0c0,1.9 0,4.3 -0.6,6.2c-1.2,3.1 -3.1,6.2 -5.6,8.7c-1.2,1.2 -2.5,1.9 -3.7,2.5c4.3,1.2 8.1,3.7 11.2,6.8c2.5,3.1 3.7,6.8 3.7,12.4l0,0c0,3.1 -0.6,6.8 -1.9,9.3c-1.2,2.5 -3.7,5 -6.2,6.8c-3.1,1.9 -6.2,3.1 -9.3,4.3c-3.7,1.2 -8.1,1.2 -12.4,1.2l-37.9,0l0,-78.8l-0.6,0l0,0.2zm33.5,32.2c3.1,0 6.2,-0.6 9.3,-1.9c2.5,-1.2 3.7,-3.7 3.7,-6.2l0,0c0,-2.5 -1.2,-5 -3.1,-6.2c-2.5,-1.9 -5.6,-2.5 -8.7,-1.9l-17.4,0l0,16.7l16.1,0l0,-0.5l0.1,0zm4.3,31.7c3.1,0 6.2,-0.6 9.3,-1.9c2.5,-1.2 3.7,-3.7 3.1,-6.8l0,0c0,-2.5 -1.2,-5 -3.1,-6.2c-1.9,-1.2 -5.6,-2.5 -9.9,-2.5l-20.5,0l0,17.4l21.1,0z" class="st0" id="svg_19"/>
    <polygon stroke="null" fill="#F3BA2F" points="314.1000061035156,28.099990844726562 331.5000305175781,28.099990844726562 331.5000305175781,107.49996948242188 314.1000061035156,107.49996948242188 " class="st0" id="svg_18"/>
    <polygon stroke="null" fill="#F3BA2F" points="358.2000427246094,28.099990844726562 374.3000183105469,28.099990844726562 411.5000305175781,77.10000610351562 411.5000305175781,28.099990844726562 428.8000183105469,28.099990844726562 428.8000183105469,107.49996948242188 414.0000305175781,107.49996948242188 374.8999938964844,57.19999694824219 374.8999938964844,107.49996948242188 358.2000427246094,107.49996948242188 " class="st0" id="svg_17"/>
    <path stroke="null" fill="#F3BA2F" d="m481.60002,27.49998l16.1,0l34.1,80l-18,0l-7.4,-18l-33.5,0l-7.4,18l-18,0l34.1,-80zm18.6,47.1l-10.5,-26l-10.5,26l21,0z" class="st0" id="svg_16"/>
    <polygon stroke="null" fill="#F3BA2F" points="550.4000244140625,28.099990844726562 566.5,28.099990844726562 603.7000732421875,77.10000610351562 603.7000732421875,28.099990844726562 621.0999755859375,28.099990844726562 621.0999755859375,107.49996948242188 606.2000122070312,107.49996948242188 567.7000732421875,57.19999694824219 567.7000732421875,107.49996948242188 550.4000244140625,107.49996948242188 " class="st0" id="svg_15"/>
    <path stroke="null" fill="#F3BA2F" d="m684.30002,108.69998c-5.6,0 -11.2,-1.2 -16.1,-3.1c-9.9,-4.3 -17.4,-11.8 -21.7,-21.7c-1.9,-5 -3.1,-10.5 -3.1,-16.1l0,0c0,-10.5 4.3,-21.1 11.8,-29.1c3.7,-3.7 8.1,-6.8 13,-8.7c5.6,-2.5 11.2,-3.1 16.7,-3.1c3.1,0 6.8,0 9.9,0.6c3.1,0.6 5.6,1.2 8.1,2.5c2.5,1.2 5,2.5 6.8,3.7c1.9,1.2 4.3,3.1 6.2,5l-10.5,13c-3.1,-2.5 -6.2,-5 -9.3,-6.8s-6.8,-2.5 -10.5,-2.5c-3.1,0 -6.2,0.6 -9.3,1.9c-3.1,1.2 -5.6,3.1 -7.4,5.6s-3.7,5 -5,8.1c-1.2,3.1 -1.9,6.2 -1.9,9.3l0,0c0,3.1 0.6,6.8 1.9,9.9s2.5,5.6 5,8.1c4.3,5 10.5,7.4 16.7,7.4c3.7,0 8.1,-0.6 11.8,-2.5c3.1,-1.9 6.8,-4.3 9.3,-6.8l11.1,11.1c-1.9,1.9 -4.3,4.3 -6.2,6.2c-2.5,1.9 -5,3.1 -7.4,4.3c-2.5,1.2 -5.6,2.5 -8.7,3.1c-4.4,0.6 -8.1,0.6 -11.2,0.6l0,0z" class="st0" id="svg_14"/>
    <polygon stroke="null" fill="#F3BA2F" points="737.7000732421875,28.099990844726562 797.2000122070312,28.099990844726562 797.2000122070312,43.59999084472656 754.4000244140625,43.59999084472656 754.4000244140625,59.69999694824219 792.2000122070312,59.69999694824219 792.2000122070312,75.20001220703125 754.4000244140625,75.20001220703125 754.4000244140625,92 797.800048828125,92 797.800048828125,107.49996948242188 737.7000732421875,107.49996948242188 " class="st0" id="svg_13"/>
    <path stroke="null" fill="#F3BA2F" d="m246.50002,185.59998c-4.3,0 -8.7,-0.6 -12.4,-2.5c-3.7,-1.2 -7.4,-3.7 -11.2,-6.8l6.2,-6.8c2.5,2.5 5,3.7 8.1,5.6c3.1,1.2 6.2,1.9 9.3,1.9c2.5,0 5,-0.6 7.4,-1.9c1.9,-1.2 2.5,-3.1 2.5,-5l0,0c0,-0.6 0,-1.9 -0.6,-2.5c-0.6,-0.6 -1.2,-1.9 -1.9,-2.5c-1.2,-0.6 -2.5,-1.2 -3.7,-1.9c-1.9,-0.6 -4.3,-1.2 -6.2,-1.9c-2.5,-0.6 -5.6,-1.2 -8.1,-2.5c-1.9,-0.6 -4.3,-1.9 -5.6,-3.1c-1.2,-1.2 -2.5,-2.5 -3.7,-4.3c-1.2,-2.5 -1.2,-5 -1.2,-6.8l0,0c0,-2.5 0.6,-4.3 1.2,-6.8c0.6,-1.9 2.5,-3.7 3.7,-5c1.9,-1.2 3.7,-2.5 6.2,-3.1c2.5,-0.6 5,-1.2 7.4,-1.2c3.7,0 7.4,0.6 11.2,1.9c3.1,1.2 6.2,3.1 9.3,5l-5,7.4c-2.5,-1.9 -5,-3.1 -7.4,-4.3c-2.5,-1.2 -5,-1.2 -7.4,-1.2c-2.5,0 -5,0.6 -6.8,1.9c-1.2,1.2 -2.5,3.1 -2.5,5l0,0c0,1.2 0,1.9 0.6,3.1c0.6,0.6 1.2,1.9 1.9,2.5c1.2,0.6 2.5,1.2 4.3,1.9c1.9,0.6 3.7,1.2 6.8,1.9c2.5,0.6 5,1.2 8.1,2.5c1.9,0.6 3.7,1.9 5.6,3.1c1.2,1.2 2.5,3.1 3.1,4.3c0.6,1.9 1.2,3.7 1.2,6.2l0,0c0,2.5 -0.6,5 -1.2,6.8c-1.2,1.9 -2.5,3.7 -4.3,5.6c-1.9,1.2 -3.7,2.5 -6.2,3.1c-3.1,-0.2 -6.2,0.4 -8.7,0.4z" class="st0" id="svg_12"/>
    <polygon stroke="null" fill="#F3BA2F" points="277.5000305175781,129.20001220703125 288.1000061035156,129.20001220703125 304.8000183105469,155.20001220703125 322.20001220703125,129.20001220703125 332.70001220703125,129.20001220703125 332.70001220703125,185 322.8000183105469,185 322.8000183105469,144.70001220703125 305.4000244140625,170.70001220703125 304.8000183105469,170.70001220703125 287.5000305175781,144.70001220703125 287.5000305175781,185 277.5000305175781,185 " class="st0" id="svg_11"/>
    <path stroke="null" fill="#F3BA2F" d="m366.20002,128.59998l9.3,0l24.2,55.8l-10.5,0l-5.6,-13.6l-26,0l-5.6,13.6l-9.9,0l24.1,-55.8zm14.3,34.1l-9.9,-22.3l-9.3,22.3l19.2,0z" class="st0" id="svg_10"/>
    <path stroke="null" fill="#F3BA2F" d="m409.60002,129.19998l24.8,0c3.1,0 6.2,0.6 9.3,1.2c2.5,0.6 5,2.5 6.8,4.3c1.2,1.2 2.5,3.1 3.7,5.6c0.6,1.9 1.2,4.3 1.2,6.8l0,0c0,1.9 -0.6,4.3 -1.2,6.2c-0.6,1.9 -1.9,3.1 -2.5,5c-1.2,1.2 -2.5,2.5 -4.3,3.7c-1.9,1.2 -3.7,1.9 -5.6,2.5l14.9,21.1l-11.8,0l-13.6,-19.2l-12.4,0l0,19.2l-9.9,0l0.6,-56.4zm24.2,27.3c3.1,0 6.2,-0.6 8.1,-2.5c1.9,-1.9 3.1,-4.3 3.1,-6.8l0,0c0,-2.5 -1.2,-5 -3.1,-6.8c-2.5,-1.9 -5.6,-2.5 -8.7,-2.5l-14.3,0l0,18.6l14.9,0z" class="st0" id="svg_9"/>
    <polygon stroke="null" fill="#F3BA2F" points="480.8999938964844,137.89996337890625 462.8999938964844,137.89996337890625 462.8999938964844,129.20001220703125 508.2000427246094,129.20001220703125 508.2000427246094,137.89996337890625 490.2000427246094,137.89996337890625 490.2000427246094,185 480.3000183105469,185 " class="st0" id="svg_8"/>
    <path stroke="null" fill="#F3BA2F" d="m568.40002,185.59998c-3.7,0 -7.4,-0.6 -11.2,-2.5c-6.8,-3.1 -12.4,-8.1 -14.9,-14.9c-1.2,-3.7 -2.5,-7.4 -1.9,-11.2l0,0c0,-3.7 0.6,-7.4 1.9,-11.2c2.5,-6.8 8.1,-12.4 14.9,-15.5c3.7,-1.2 7.4,-2.5 11.8,-2.5c2.5,0 5,0 6.8,0.6c1.9,0.6 3.7,1.2 5.6,1.9c1.9,0.6 3.1,1.9 5,2.5c1.2,1.2 3.1,2.5 4.3,3.7l-6.2,7.4c-1.9,-1.9 -4.3,-3.7 -6.8,-5c-2.5,-1.2 -5.6,-1.9 -8.7,-1.9c-2.5,0 -5,0.6 -7.4,1.2c-2.5,1.2 -4.3,2.5 -6.2,4.3c-1.9,1.9 -3.1,3.7 -3.7,6.2s-1.2,5 -1.2,7.4l0,0c0,2.5 0.6,5 1.2,7.4s1.9,4.3 3.7,6.2c1.9,1.9 3.7,3.1 6.2,4.3c2.5,1.2 5,1.9 7.4,1.2c3.1,0 6.2,-0.6 8.7,-1.9c2.5,-1.2 5,-3.1 7.4,-5.6l6.2,6.2c-1.2,1.2 -3.1,3.1 -4.3,4.3c-1.9,1.2 -3.1,2.5 -5,3.1c-1.9,0.6 -3.7,1.9 -6.2,1.9c-2.5,2.4 -5,2.4 -7.4,2.4l0,0z" class="st0" id="svg_7"/>
    <polygon stroke="null" fill="#F3BA2F" points="601.2000122070312,129.20001220703125 610.5,129.20001220703125 610.5,152.10000610351562 637.2000122070312,152.10000610351562 637.2000122070312,129.20001220703125 647.0999755859375,129.20001220703125 647.0999755859375,185 637.2000122070312,185 637.2000122070312,161.39996337890625 610.5,161.39996337890625 610.5,185 601.2000122070312,185 " class="st0" id="svg_6"/>
    <path stroke="null" fill="#F3BA2F" d="m681.20002,128.59998l9.3,0l24.2,55.8l-10.5,0l-5.6,-13.6l-26,0l-5.6,13.6l-9.9,0l24.1,-55.8zm13.7,34.1l-9.3,-22.3l-9.3,22.3l18.6,0z" class="st0" id="svg_5"/>
    <polygon stroke="null" fill="#F3BA2F" points="724.6000366210938,129.20001220703125 734.6000366210938,129.20001220703125 734.6000366210938,185 724.6000366210938,185 " class="st0" id="svg_4"/>
    <polygon stroke="null" fill="#F3BA2F" points="749.4000244140625,129.20001220703125 758.0999755859375,129.20001220703125 787.8999633789062,167.5999755859375 787.8999633789062,129.20001220703125 797.800048828125,129.20001220703125 797.800048828125,185 789.7000732421875,185 759.4000244140625,145.29998779296875 759.4000244140625,185 749.4000244140625,185 " class="st0" id="svg_3"/>
    <path stroke="null" fill="#F3BA2F" d="m115.10002,181.29998l0,24.2l-21.1,12.4l-20.5,-12.4l0,-24.2l20.5,12.4l21.1,-12.4zm-112.9,-83.7l20.5,12.4l0,41.5l35.3,21.1l0,24.2l-55.8,-32.9l0,-66.3zm183.6,0l0,66.4l-56.4,32.9l0,-24.2l35.3,-21.1l0,-41.5l21.1,-12.5zm-56.5,-32.9l21.1,12.4l0,0l0,24.2l-35.3,21.1l0,42.1l-20.5,12.4l-20.4,-12.4l0,-42.2l-36.6,-21.1l0,-24.2l21.1,-12.4l35.3,21.1l35.3,-21zm-91.7,53.9l20.5,12.4l0,24.2l-20.5,-12.4l0,-24.2zm112.8,0l0,24.2l-20.5,12.4l0,-24.2l20.5,-12.4zm-127.7,-75l21.1,12.4l-21.1,12.4l0,24.2l-20.5,-12.4l0,-24.2l20.5,-12.4zm142.6,0l21.1,12.4l0,24.2l-21.1,12.4l0,-24.2l-20.5,-12.4l20.5,-12.4zm-71.3,0l21.1,12.4l-21.1,12.4l-20.5,-12.4l20.5,-12.4zm0,-41.5l56.4,32.9l-20.5,12.4l-35.3,-21.1l-36,21.1l-20.5,-12.4l55.9,-32.9z" class="st0" id="svg_2"/>
   </g>
  </g>
 </g>
</svg>