<svg xmlns="http://www.w3.org/2000/svg" width="45" height="45" viewBox="0 -5.1 45 40">
<path d="M29.0989 7.21621C32.376 6.50869 35.7432 7.94424 37.5017 10.7987C39.2603 13.6531 39.0281 17.3061 36.9223 19.9149C34.8165 22.5237 31.2946 23.5214 28.1335 22.4046C24.9723 21.2878 22.8587 18.2993 22.8589 14.9467H15.8621C15.8566 21.644 20.3123 27.5253 26.7612 29.3327C33.21 31.1402 40.0733 28.4313 43.5494 22.7067C47.0255 16.9821 46.2634 9.64303 41.6853 4.75473C37.1072 -0.133567 29.8338 -1.37446 23.8939 1.7194C26.0698 3.07719 27.8617 4.96957 29.0989 7.21621Z" fill="#5F5FFF"/>
<path d="M16.6188 22.673C13.3418 23.3805 9.97478 21.9451 8.21618 19.0909C6.45757 16.2366 6.68953 12.5837 8.79503 9.97487C10.9005 7.36599 14.4221 6.368 17.5833 7.48431C20.7445 8.60063 22.8585 11.5887 22.8588 14.9412H29.8557C29.8611 8.24387 25.4054 2.36263 18.9566 0.555181C12.5077 -1.25226 5.64441 1.45655 2.16833 7.18117C-1.30776 12.9058 -0.54569 20.2449 4.03241 25.1332C8.61051 30.0215 15.8839 31.2623 21.8238 28.1685C19.6482 26.811 17.8563 24.9191 16.6188 22.673Z" fill="#17E5AA"/>
</svg>
