<svg xmlns="http://www.w3.org/2000/svg" width="30" height="30" viewBox="0 0 30 30">
  <g id="oec" transform="translate(-48.8 -48.8)">
    <path id="Path_168" data-name="Path 168" d="M63.8,48.8a15.044,15.044,0,0,0-15,15h0a15.044,15.044,0,0,0,15,15h0a15.044,15.044,0,0,0,15-15h0a15.044,15.044,0,0,0-15-15Z" fill="#01943f"/>
    <g id="Group_20" data-name="Group 20" transform="translate(56.437 55.766)">
      <g id="Group_16" data-name="Group 16" transform="translate(0.021)">
        <path id="Path_169" data-name="Path 169" d="M78.707,76.06a.158.158,0,0,1,.032-.015c.121-.056.242-.109.362-.156V73.506a.785.785,0,0,0-.783-.786H75.07v6.839A7.834,7.834,0,0,1,78.707,76.06Z" transform="translate(-75.07 -72.72)" fill="#fff"/>
      </g>
      <g id="Group_17" data-name="Group 17" transform="translate(0 3.458)">
        <path id="Path_170" data-name="Path 170" d="M81.965,88.511h.724a1.9,1.9,0,0,0,1.9-1.9V84.57c-.392-.068-2.182-.105-2.6-.105a6.99,6.99,0,0,0-6.977,6.5c-.012.162-.018.324-.018.489s.006.327.018.489h0v4.346a.783.783,0,0,0,.783.783H79.05V91.418a2.913,2.913,0,0,1,2.916-2.907Z" transform="translate(-75 -84.465)" fill="#fff"/>
      </g>
      <g id="Group_18" data-name="Group 18" transform="translate(10.679 9.23)">
        <path id="Path_171" data-name="Path 171" d="M111.656,107.559a.159.159,0,0,1-.032.015c-.121.056-.242.109-.362.156v2.383a.785.785,0,0,0,.783.786h3.246V104.06A7.842,7.842,0,0,1,111.656,107.559Z" transform="translate(-111.261 -104.06)" fill="#fff"/>
      </g>
      <g id="Group_19" data-name="Group 19" transform="translate(5.133)">
        <path id="Path_172" data-name="Path 172" d="M102,77.85h0V73.5a.783.783,0,0,0-.783-.783H97.973v5.658a2.912,2.912,0,0,1-2.913,2.906h-.728a1.9,1.9,0,0,0-1.9,1.9v2.038c.392.068,2.182.105,2.6.105h.138a6.928,6.928,0,0,0,2.816-.651L98,84.668a6.981,6.981,0,0,0,4.008-5.843c.012-.162.018-.324.018-.489S102.016,78.012,102,77.85Z" transform="translate(-92.43 -72.72)" fill="#fff"/>
      </g>
    </g>
  </g>
</svg>
