<svg xmlns="http://www.w3.org/2000/svg" fill="none" viewBox="4.93 5.1 85.74 75.41">
<path fill-rule="evenodd" clip-rule="evenodd" d="M84.4519 38.2726C84.6275 39.7538 84.7251 41.2642 84.7251 42.7991C84.7251 63.6188 67.8269 80.5016 46.9774 80.5016C31.7963 80.5016 18.7129 71.551 12.7175 58.6441L18.7568 55.6086C23.635 66.3132 34.4354 73.7533 46.9774 73.7533C64.0902 73.7533 77.9688 59.8963 77.9688 42.7991C77.9688 42.4823 77.9639 42.1656 77.9541 41.8489L84.4519 38.2726ZM46.9774 5.0965C62.8755 5.0965 76.4809 14.9144 82.0421 28.8153L75.5833 30.8714C70.91 19.699 59.8608 11.8448 46.9774 11.8448C29.8645 11.8448 15.986 25.7018 15.986 42.7991C15.986 43.0086 15.9908 43.2229 15.9957 43.4325L9.67353 48.5972C9.38084 46.7067 9.22961 44.7724 9.22961 42.7991C9.23449 21.9745 26.1327 5.0965 46.9774 5.0965Z" fill="white"/>
<path fill-rule="evenodd" clip-rule="evenodd" d="M4.927 57.8743L41.8454 27.7142L40.3137 40.2557L61.8608 28.0601L60.7681 39.9682L89.0326 30.9787L50.6994 52.0664L53.563 40.0657L31.4158 53.0311L32.8793 43.8272L4.927 57.8743Z" fill="white"/>
</svg>
