<svg xmlns="http://www.w3.org/2000/svg" width="34.094" height="30" viewBox="0 0 34.094 30">
  <g id="polygon" transform="translate(0 0.1)">
    <path id="Path_589" data-name="Path 589" d="M25.816,9.069a2.268,2.268,0,0,0-2.136,0l-4.985,2.938-3.383,1.869-4.9,2.938a2.268,2.268,0,0,1-2.136,0L4.451,14.5a2.17,2.17,0,0,1-1.068-1.87V8.179a2.2,2.2,0,0,1,1.068-1.87L8.279,4.084a2.268,2.268,0,0,1,2.136,0L14.243,6.4a2.17,2.17,0,0,1,1.068,1.869v2.938l3.383-1.958V6.22a2.2,2.2,0,0,0-1.068-1.869L10.5.167a2.268,2.268,0,0,0-2.136,0L1.068,4.44A1.958,1.958,0,0,0,0,6.22v8.368a2.2,2.2,0,0,0,1.068,1.869l7.211,4.184a2.268,2.268,0,0,0,2.136,0l4.9-2.849L18.7,15.834l4.9-2.849a2.268,2.268,0,0,1,2.136,0l3.828,2.226A2.17,2.17,0,0,1,30.63,17.08v4.451A2.2,2.2,0,0,1,29.555,23.4l-3.739,2.226a2.268,2.268,0,0,1-2.136,0L19.852,23.4a2.17,2.17,0,0,1-1.068-1.869V18.683L15.4,20.642V23.58a2.2,2.2,0,0,0,1.068,1.869l7.211,4.184a2.268,2.268,0,0,0,2.136,0l7.211-4.184a2.17,2.17,0,0,0,1.068-1.869V15.123a2.2,2.2,0,0,0-1.068-1.869Z" fill="#8247e5"/>
  </g>
</svg>
