<?xml version="1.0" standalone="no"?>
<!DOCTYPE svg PUBLIC "-//W3C//DTD SVG 20010904//EN"
 "http://www.w3.org/TR/2001/REC-SVG-20010904/DTD/svg10.dtd">
<svg version="1.0" xmlns="http://www.w3.org/2000/svg"
 width="225.000000pt" height="225.000000pt" viewBox="0 0 225.000000 225.000000"
 preserveAspectRatio="xMidYMid meet">

<g transform="translate(0.000000,225.000000) scale(0.100000,-0.100000)"
fill="#000000" stroke="none">
<path d="M0 1125 l0 -1125 1125 0 1125 0 0 1125 0 1125 -1125 0 -1125 0 0
-1125z m1658 608 l3 -73 -511 0 -510 0 0 -535 0 -535 510 0 511 0 -3 -72 -3
-73 -585 0 -585 0 -3 670 c-1 369 0 676 3 682 3 10 134 12 587 10 l583 -2 3
-72z m111 -210 c86 -27 155 -100 176 -185 l7 -28 -81 0 c-80 0 -81 0 -96 31
-20 38 -68 59 -136 59 -92 0 -151 -50 -135 -115 9 -35 51 -53 179 -76 62 -12
133 -30 159 -41 104 -44 154 -149 128 -265 -10 -47 -21 -65 -64 -108 -67 -67
-135 -90 -261 -89 -177 2 -300 85 -330 222 l-7 32 81 0 80 0 17 -35 c29 -62
120 -93 218 -75 90 17 133 93 86 152 -25 33 -52 43 -189 68 -122 23 -160 37
-204 79 -96 88 -82 246 29 334 71 55 237 75 343 40z"/>
</g>
</svg>
